<?xml version="1.0" encoding="UTF-8" standalone="yes"?>
<svg width="420" height="96" viewBox="0 0 280 64" fill="none" xmlns="http://www.w3.org/2000/svg">
  <g id="tenant--inverse--nlbe" clip-path="url(#clip0_489_442)">
    <g id="2dehands">
      <path id="S" d="M262.61 25.99C262.6 31.07 279.48 28.75 279.47 40.07C279.46 46.52 273.97 49.8 266.91 49.8C261.01 49.79 256.49 47.11 254.77 44.99C254.22 44.3 253.95 43.69 253.95 42.86C253.95 41.08 255.46 39.57 257.25 39.57C257.94 39.57 258.62 39.78 259.38 40.4C261.23 41.91 263.49 43.22 266.92 43.22C270.01 43.22 272 42.4 272 40.48C272.01 34.92 255.2 37.79 255.21 26.13C255.22 19.96 260.36 16.94 266.67 16.95C271.54 16.95 275.86 18.81 277.78 21.21C278.19 21.76 278.47 22.24 278.46 23.27C278.46 25.05 276.95 26.56 275.16 26.56C274.2 26.56 273.58 26.15 272.83 25.6C271.32 24.5 269.47 23.4 266.66 23.4C264.12 23.38 262.61 24.27 262.61 25.99Z" fill="white"/>
      <path id="D" d="M243.37 19.6601L243.39 3.88005C243.39 1.82005 245.04 0.180054 247.1 0.180054C249.16 0.180054 250.8 1.83005 250.8 3.89005L250.77 36.1901C250.76 45.3101 244.86 49.9001 236.56 49.8901C227.3 49.8801 221.89 44.5901 221.9 33.4101C221.91 22.2301 227.2 16.8901 235.84 16.8901C239.12 16.9101 242 18.2801 243.37 19.6601ZM243.36 26.7201C243.36 26.7201 240.69 23.2201 236.57 23.2201C231.91 23.2201 229.23 26.6401 229.22 33.4301C229.21 40.1501 231.82 43.5801 236.55 43.5901C240.53 43.5901 243.34 40.9201 243.35 36.1901L243.36 26.7201Z" fill="white"/>
      <path id="N" d="M217.83 28.82L217.81 45.97C217.81 48.03 216.16 49.54 214.1 49.53C211.91 49.53 210.4 48.02 210.4 45.96L210.42 30.18C210.42 26.27 208.85 23.59 204.39 23.59C199.25 23.58 197.53 26.6 197.52 30.65L197.51 45.95C197.51 48.01 195.93 49.52 193.8 49.51C191.67 49.51 190.1 48 190.1 45.94L190.12 20.97C190.12 18.91 191.77 17.27 193.83 17.27C195.89 17.27 197.53 18.92 197.53 20.98C198.84 18.99 201.72 16.87 206.31 16.87C215.65 16.89 217.84 22.86 217.83 28.82Z" fill="white"/>
      <path id="A" d="M164.33 26.0301C163.64 26.5101 163.09 26.7101 162.27 26.7101C160.49 26.7101 159.05 25.2701 159.05 23.4801C159.05 22.7301 159.33 21.9001 159.94 21.2201C161.86 19.0901 165.29 16.8401 171.19 16.8401C179.7 16.8501 184.77 21.0401 184.76 28.3101L184.74 45.8701C184.74 47.8601 183.09 49.5001 181.1 49.5001C179.11 49.5001 177.47 47.8501 177.47 45.8601C175.62 48.8101 172.6 49.8301 168.48 49.8301C161.76 49.8201 157.3 45.6401 157.31 39.4601C157.32 33.0801 162.46 29.7901 168.43 29.8001L177.42 29.8101V28.5801C177.42 25.4901 175.16 23.4301 171.18 23.4301C168.17 23.4301 166.04 24.8001 164.33 26.0301ZM177.42 37.4901V35.5701L169.4 35.5601C166.38 35.5601 164.73 37.0001 164.73 39.4701C164.73 42.0801 166.58 43.6601 170.42 43.6601C174.05 43.6601 177.41 41.3401 177.42 37.4901Z" fill="white"/>
      <path id="H" d="M133.39 20.9201C134.7 18.9301 137.58 16.8101 142.17 16.8101C151.5 16.8201 153.69 22.7901 153.68 28.7601L153.66 45.9101C153.66 47.9701 152.01 49.4801 149.95 49.4701C147.76 49.4701 146.25 47.9601 146.25 45.9001L146.27 30.1201C146.27 26.2101 144.7 23.5301 140.24 23.5301C135.1 23.5201 133.38 26.5401 133.37 30.5901L133.36 45.8901C133.36 47.9501 131.78 49.4601 129.65 49.4501C127.52 49.4501 125.95 47.9401 125.95 45.8801L125.99 3.77007C125.99 1.71007 127.64 0.0700684 129.7 0.0700684C131.76 0.0700684 133.4 1.72007 133.4 3.78007L133.39 20.9201Z" fill="white"/>
      <path id="E" d="M108.17 16.78C119.76 16.79 121.88 25.71 121.87 30.44C121.87 32.98 121.86 35.93 117.68 35.92L100.74 35.9C100.73 40.84 104.23 43.11 108.76 43.11C111.78 43.11 113.91 42.09 115.55 40.99C116.3 40.51 116.85 40.24 117.75 40.24C119.53 40.24 120.97 41.68 120.97 43.47C120.97 44.57 120.42 45.46 119.8 46.01C118.63 47.11 115 49.78 108.75 49.77C99.22 49.76 93.32 44.61 93.33 33.16C93.35 22.67 98.84 16.77 108.17 16.78ZM100.95 29.74L114.53 29.75C114.53 26.39 112.62 23.1 108.16 23.09C104.18 23.09 101.3 25.35 100.95 29.74Z" fill="white"/>
      <path id="D_2" d="M82.07 19.5L82.09 3.72002C82.09 1.66002 83.74 0.0200195 85.8 0.0200195C87.86 0.0200195 89.5 1.67002 89.5 3.73002L89.47 36.03C89.46 45.15 83.56 49.74 75.26 49.73C66 49.72 60.59 44.43 60.6 33.25C60.61 22.07 65.9 16.73 74.54 16.73C77.82 16.75 80.7 18.13 82.07 19.5ZM82.07 26.57C82.07 26.57 79.4 23.07 75.28 23.07C70.62 23.07 67.94 26.49 67.93 33.28C67.92 40 70.53 43.43 75.26 43.44C79.24 43.44 82.05 40.77 82.06 36.04L82.07 26.57Z" fill="white"/>
    </g>
    <g id="Coin">
      <path id="Circle Fade" d="M32.57 64C14.93 64 0.570007 49.64 0.570007 32C0.570007 14.36 14.93 0 32.57 0C50.21 0 64.57 14.36 64.57 32C64.57 49.64 50.21 64 32.57 64ZM32.57 7.29C18.95 7.29 7.86001 18.37 7.86001 32C7.86001 45.63 18.95 56.71 32.57 56.71C46.19 56.71 57.28 45.62 57.28 32C57.28 18.38 46.19 7.29 32.57 7.29Z" fill="url(#paint0_linear_489_442)"/>
      <path id="Circle" d="M12.52 55.7C11.59 55.7 10.65 55.34 9.94001 54.63C3.90001 48.58 0.570007 40.55 0.570007 32C0.570007 14.36 14.93 0 32.57 0C41.12 0 49.15 3.33 55.2 9.37C56.62 10.79 56.62 13.1 55.2 14.53C53.78 15.95 51.47 15.95 50.04 14.53C45.37 9.86 39.17 7.29 32.57 7.29C18.95 7.29 7.86001 18.37 7.86001 32C7.86001 38.6 10.43 44.81 15.1 49.47C16.52 50.89 16.52 53.2 15.1 54.63C14.39 55.34 13.45 55.7 12.52 55.7Z" fill="#FFBB00"/>
      <path id="2" d="M40.9 49.3199L24.22 49.2999C22.18 49.2999 20.53 47.6499 20.54 45.6099V43.4899C20.54 38.6499 24.8 36.0199 28.91 33.4799C32.32 31.3799 36.98 28.4999 36.98 25.7399C36.98 24.5399 36.98 22.0499 32.13 22.0499C29.61 22.0499 28.74 22.5699 26.82 23.7099C26.6 23.8399 26.37 23.9799 26.13 24.1199C24.37 25.1499 22.11 24.5499 21.09 22.7899C20.06 21.0299 20.66 18.7699 22.42 17.7499L23.06 17.3699C25.29 16.0499 27.6 14.6799 32.14 14.6799C39.68 14.6899 44.36 18.9299 44.36 25.7499C44.35 32.6199 37.67 36.7499 32.79 39.7599C31.92 40.2999 30.54 41.1499 29.46 41.9399L40.91 41.9499C42.95 41.9499 44.6 43.5999 44.59 45.6399C44.59 47.6799 42.94 49.3299 40.9 49.3199Z" fill="#FFBB00"/>
    </g>
  </g>
  <defs>
    <linearGradient id="paint0_linear_489_442" x1="0.570007" y1="32" x2="64.5694" y2="32" gradientUnits="userSpaceOnUse">
      <stop offset="0.1087" stop-color="#FFBB00" stop-opacity="0"/>
      <stop offset="0.7907" stop-color="#FFBB00"/>
    </linearGradient>
    <clipPath id="clip0_489_442">
      <rect width="280" height="64" fill="white"/>
    </clipPath>
  </defs>
</svg>